<?xml version="1.0" encoding="UTF-8" standalone="no"?>
<svg
   xmlns:dc="http://purl.org/dc/elements/1.1/"
   xmlns:cc="http://creativecommons.org/ns#"
   xmlns:rdf="http://www.w3.org/1999/02/22-rdf-syntax-ns#"
   xmlns:svg="http://www.w3.org/2000/svg"
   xmlns="http://www.w3.org/2000/svg"
   xmlns:sodipodi="http://sodipodi.sourceforge.net/DTD/sodipodi-0.dtd"
   xmlns:inkscape="http://www.inkscape.org/namespaces/inkscape"
   viewBox="1500 100 550.0 500.0"
   id="svg2"
   sodipodi:version="0.32"
   inkscape:version="0.46"
   width="591.60000px"
   height="755.36000px"
   sodipodi:docname="Ga_motto.svg"
   sodipodi:docbase="/media/WD_USB_2/jake/Documents/Images/Made/wikipedia"
   inkscape:output_extension="org.inkscape.output.svg.inkscape">
  <sodipodi:namedview
     id="base"
     pagecolor="#ffffff"
     bordercolor="#666666"
     borderopacity="1.0"
     inkscape:pageopacity="0.0"
     inkscape:pageshadow="2"
     inkscape:window-width="951"
     inkscape:window-height="719"
     inkscape:zoom="0.63281167"
     inkscape:cx="76.597541"
     inkscape:cy="388.34472"
     inkscape:window-x="0"
     inkscape:window-y="25"
     inkscape:current-layer="svg2"
     showgrid="false" />
  <metadata
     id="metadata33">
    <rdf:RDF>
      <cc:Work
         rdf:about="">
        <dc:format>image/svg+xml</dc:format>
        <dc:type
           rdf:resource="http://purl.org/dc/dcmitype/StillImage" />
      </cc:Work>
    </rdf:RDF>
  </metadata>
  <defs
     id="defs31" />
  <g
     id="g2427"
     style="fill:#ffffff">
    <path
       style="opacity:1;fill:#D3D3D3;fill-opacity:1"
       id="path10"
       d="M 5.940481,14.4702 C 6.040481,17.6702 6.540481,20.0702 7.040481,19.8702 C 7.440481,19.5702 7.740481,21.1702 7.440481,23.3702 C 7.240481,25.5702 7.540481,27.1702 7.940481,26.8702 C 8.440481,26.5702 8.740481,28.1702 8.440481,30.3702 C 8.240481,32.5702 8.540481,34.1702 9.040481,33.8702 C 9.440481,33.5702 9.740481,34.8702 9.440481,36.8702 C 9.240481,38.8702 9.440481,40.1702 9.940481,39.8702 C 10.540481,39.5702 10.740481,40.8702 10.440481,42.8702 C 10.240481,44.8702 10.340481,46.2702 10.740481,46.0702 C 11.640481,45.4702 12.840481,58.3702 12.040481,59.7702 C 11.540481,60.4702 11.840481,60.5702 12.640481,60.0702 C 13.540481,59.4702 13.740481,60.2702 13.440481,63.3702 C 13.240481,65.5702 13.340481,67.2702 13.740481,67.0702 C 14.640481,66.4702 16.840481,85.3702 16.040481,86.6702 C 15.540481,87.4702 15.740481,87.5702 16.640481,87.0702 C 17.540481,86.4702 17.740481,87.2702 17.440481,90.3702 C 17.240481,92.5702 17.340481,94.2702 17.740481,93.9702 C 18.540481,93.5702 19.840481,103.0702 20.040481,110.2702 C 20.040481,113.0702 20.440481,115.1702 20.940481,114.8702 C 21.340481,114.6702 21.640481,115.6702 21.640481,117.2702 C 21.640481,118.7702 22.040481,121.5702 22.540481,123.3702 C 23.140481,125.1702 23.140481,126.3702 22.840481,126.1702 C 22.440481,125.8702 22.040481,126.5702 22.040481,127.5702 C 22.040481,128.5702 22.440481,129.1702 23.040481,128.8702 C 23.540481,128.4702 23.740481,130.1702 23.440481,133.0702 C 23.040481,135.9702 23.240481,137.2702 23.740481,136.4702 C 24.340481,135.4702 24.640481,136.0702 24.640481,138.2702 C 24.640481,139.9702 25.040481,141.7702 25.640481,142.0702 C 26.140481,142.3702 26.640481,143.1702 26.640481,143.6702 C 26.640481,144.2702 26.040481,144.3702 25.440481,143.9702 C 24.440481,143.3702 24.440481,143.4702 25.340481,144.7702 C 26.040481,145.5702 26.240481,146.6702 25.840481,147.0702 C 25.440481,147.5702 25.740481,147.5702 26.540481,147.0702 C 27.640481,146.4702 27.840481,146.7702 27.440481,148.3702 C 27.040481,149.7702 27.240481,150.3702 27.840481,149.9702 C 28.540481,149.4702 28.740481,150.1702 28.440481,151.8702 C 28.140481,153.4702 28.340481,154.2702 28.940481,153.8702 C 29.540481,153.4702 29.740481,154.2702 29.440481,155.9702 C 29.140481,157.4702 29.140481,158.3702 29.440481,158.0702 C 29.940481,157.5702 31.640481,160.1702 33.740481,164.5702 C 34.340481,165.9702 35.240481,167.8702 35.740481,168.7702 C 36.240481,169.8702 36.240481,171.5702 35.540481,173.2702 C 34.640481,175.6702 34.840481,176.2702 37.040481,178.0702 C 38.440481,179.2702 39.640481,180.5702 39.640481,181.1702 C 39.640481,181.7702 37.740481,183.8702 35.340481,185.8702 C 31.140481,189.3702 30.640481,190.6702 30.640481,196.9702 C 30.540481,198.5702 29.640481,201.4702 28.540481,203.2702 C 27.040481,205.5702 26.540481,207.8702 26.840481,210.4702 C 27.040481,212.6702 26.740481,214.1702 26.340481,213.8702 C 25.840481,213.5702 25.940481,214.2702 26.540481,215.2702 C 27.140481,216.3702 27.340481,217.5702 27.040481,217.8702 C 26.740481,218.1702 27.040481,218.6702 27.740481,219.1702 C 28.540481,219.6702 28.740481,219.4702 28.140481,218.4702 C 27.540481,217.3702 27.640481,217.2702 28.640481,218.2702 C 29.440481,218.9702 30.040481,221.0702 30.040481,222.9702 C 30.140481,224.8702 30.540481,226.1702 31.040481,225.7702 C 31.540481,225.4702 31.640481,226.2702 31.340481,227.6702 C 30.940481,228.9702 30.640481,230.4702 30.640481,230.8702 C 30.640481,231.3702 30.240481,231.4702 29.840481,231.1702 C 29.440481,230.9702 28.940481,231.6702 28.940481,232.8702 C 28.740481,234.6702 28.940481,234.7702 29.740481,233.5702 C 30.640481,232.3702 30.740481,232.4702 30.140481,234.0702 C 28.840481,238.1702 27.840481,244.7702 28.440481,246.7702 C 28.840481,248.3702 28.640481,248.6702 27.540481,247.9702 C 26.640481,247.4702 26.740481,247.9702 27.940481,249.5702 C 31.040481,253.9702 36.040481,266.1702 37.340481,272.5702 C 38.640481,279.2702 38.640481,279.2702 53.940481,280.0702 C 61.740481,280.4702 69.440481,280.9702 71.140481,281.0702 C 72.840481,281.1702 79.540481,281.6702 86.140481,281.9702 C 92.740481,282.3702 99.740481,282.8702 101.64048,283.0702 C 103.54048,283.2702 110.54048,283.7702 117.14048,284.0702 C 123.74048,284.3702 134.54048,285.0702 141.14048,285.5702 C 151.54048,286.3702 168.04048,287.3702 181.14048,288.0702 C 183.84048,288.1702 185.04048,288.6702 184.84048,289.5702 C 184.64048,290.2702 185.04048,292.1702 185.74048,293.7702 C 186.64048,295.9702 186.64048,296.8702 185.54048,298.2702 C 184.54048,299.3702 184.54048,299.6702 185.44048,299.1702 C 186.14048,298.7702 186.64048,298.9702 186.64048,299.8702 C 186.64048,300.7702 187.84048,301.2702 190.14048,301.2702 C 193.04048,301.2702 193.64048,300.8702 193.74048,299.1702 C 193.74048,297.9702 194.14048,294.7702 194.54048,291.8702 C 195.04048,288.5702 194.94048,286.8702 194.34048,287.2702 C 193.74048,287.6702 193.54048,286.9702 193.84048,285.7702 C 194.24048,284.5702 194.04048,283.7702 193.54048,284.1702 C 193.04048,284.4702 192.64048,283.7702 192.64048,282.5702 C 192.64048,281.1702 193.04048,280.6702 193.94048,281.1702 C 194.74048,281.7702 194.74048,281.4702 193.84048,280.2702 C 191.64048,277.5702 193.54048,273.8702 196.94048,274.4702 C 197.34048,274.4702 197.64048,273.8702 197.64048,273.0702 C 197.64048,272.1702 198.64048,271.5702 200.24048,271.5702 C 201.64048,271.5702 202.54048,271.9702 202.24048,272.3702 C 202.04048,272.7702 202.74048,273.2702 203.94048,273.2702 C 205.14048,273.3702 206.24048,273.9702 206.44048,274.5702 C 206.64048,275.0702 207.24048,275.2702 207.74048,274.9702 C 208.34048,274.6702 209.24048,274.8702 209.94048,275.3702 C 212.04048,277.0702 220.94048,278.5702 222.34048,277.3702 C 223.04048,276.7702 223.34048,275.8702 222.94048,275.3702 C 221.74048,273.2702 221.94048,267.3702 223.34048,265.9702 C 224.64048,264.7702 224.54048,264.5702 223.24048,264.5702 C 220.94048,264.5702 221.24048,263.2702 224.14048,260.5702 C 226.04048,258.7702 226.34048,257.9702 225.44048,257.3702 C 224.44048,256.7702 224.44048,256.5702 225.44048,256.5702 C 226.14048,256.5702 226.44048,256.0702 226.14048,255.5702 C 224.44048,252.7702 224.74048,247.7702 226.84048,243.3702 C 229.04048,238.8702 232.64048,235.4702 231.24048,239.2702 C 230.64048,240.6702 230.84048,240.7702 231.74048,239.8702 C 232.94048,238.6702 232.04048,236.1702 230.64048,237.0702 C 230.14048,237.3702 229.94048,235.6702 230.14048,233.3702 C 230.34048,230.9702 231.04048,228.9702 231.64048,228.7702 C 232.44048,228.4702 232.44048,227.9702 231.64048,227.0702 C 230.34048,225.5702 232.04048,224.0702 235.04048,224.0702 C 236.34048,224.0702 237.04048,223.2702 237.24048,221.2702 C 237.34048,219.7702 237.04048,218.5702 236.54048,218.5702 C 235.94048,218.5702 235.84048,218.0702 236.24048,217.4702 C 236.64048,216.6702 237.14048,216.7702 237.74048,217.6702 C 238.24048,218.4702 238.64048,218.5702 238.64048,218.0702 C 238.64048,217.4702 238.14048,216.4702 237.54048,215.8702 C 236.14048,214.4702 240.04048,211.6702 243.04048,211.9702 C 246.54048,212.3702 246.24048,208.6702 242.64048,207.4702 C 239.14048,206.1702 238.04048,203.7702 240.14048,201.6702 C 241.24048,200.5702 241.64048,200.4702 241.64048,201.3702 C 241.64048,202.0702 242.04048,202.4702 242.54048,202.1702 C 243.04048,201.8702 244.64048,202.2702 246.24048,203.0702 C 249.34048,204.6702 251.84048,203.8702 249.34048,202.0702 C 247.04048,200.4702 247.24048,198.8702 249.64048,198.0702 C 250.74048,197.7702 251.54048,196.9702 251.34048,196.3702 C 250.94048,194.0702 248.14048,191.5702 245.94048,191.5702 C 242.74048,191.5702 240.34048,188.7702 240.84048,185.4702 C 241.14048,183.9702 240.94048,182.8702 240.44048,183.1702 C 240.04048,183.4702 239.64048,182.5702 239.64048,181.1702 C 239.64048,179.7702 240.14048,178.3702 240.64048,178.0702 C 241.24048,177.6702 240.84048,176.7702 239.74048,175.7702 C 238.64048,174.8702 237.54048,172.7702 237.34048,171.2702 C 236.94048,167.8702 232.24048,162.6702 228.44048,161.3702 C 225.14048,160.1702 224.34048,157.7702 224.24048,148.9702 C 224.14048,144.7702 223.74048,142.9702 223.04048,143.2702 C 222.04048,143.6702 218.94048,137.1702 219.34048,135.5702 C 220.14048,131.8702 220.04048,131.0702 218.14048,131.0702 C 217.04048,131.0702 216.24048,130.4702 216.44048,129.7702 C 216.54048,128.9702 216.24048,128.6702 215.74048,129.0702 C 213.64048,130.3702 206.64048,125.4702 202.74048,119.9702 C 200.54048,116.8702 198.94048,113.9702 199.14048,113.5702 C 199.44048,113.1702 198.84048,112.8702 197.84048,112.9702 C 196.54048,113.0702 196.04048,112.1702 195.84048,109.1702 C 195.64048,106.9702 194.74048,104.6702 193.94048,104.0702 C 193.04048,103.3702 192.64048,102.4702 192.94048,101.8702 C 193.24048,101.3702 191.54048,99.8702 189.04048,98.6702 C 186.64048,97.4702 184.84048,95.9702 185.14048,95.4702 C 185.54048,94.9702 185.14048,94.8702 184.34048,95.1702 C 182.64048,95.7702 179.24048,89.9702 180.34048,88.2702 C 180.64048,87.6702 180.44048,87.5702 179.84048,87.9702 C 179.14048,88.3702 178.64048,88.1702 178.64048,87.5702 C 178.64048,86.1702 173.94048,81.7702 170.34048,79.9702 C 168.74048,79.0702 167.84048,77.9702 168.24048,77.3702 C 168.64048,76.6702 168.54048,76.5702 167.84048,76.9702 C 166.54048,77.7702 161.44048,73.6702 162.24048,72.3702 C 162.54048,71.8702 162.34048,71.6702 161.84048,71.7702 C 161.24048,71.9702 160.74048,71.6702 160.64048,71.0702 C 160.54048,70.4702 159.64048,68.6702 158.54048,66.9702 C 157.54048,65.2702 157.04048,63.5702 157.44048,63.1702 C 157.84048,62.7702 157.74048,62.4702 157.14048,62.5702 C 154.74048,63.0702 153.54048,62.4702 153.74048,60.7702 C 154.04048,58.6702 152.84048,55.6702 150.84048,53.3702 C 150.04048,52.3702 149.64048,50.9702 150.04048,50.0702 C 150.34048,49.1702 150.24048,48.7702 149.64048,49.0702 C 148.44048,49.7702 146.34048,45.7702 147.04048,44.0702 C 147.64048,42.4702 144.64048,41.1702 140.14048,41.0702 C 138.24048,41.0702 137.24048,40.5702 137.44048,39.7702 C 137.54048,38.9702 137.24048,38.6702 136.74048,38.9702 C 136.24048,39.2702 134.54048,38.2702 132.94048,36.5702 C 131.44048,34.9702 129.84048,33.5702 129.44048,33.5702 C 127.54048,33.5702 120.74048,27.8702 120.64048,26.2702 C 120.64048,22.8702 123.34048,18.0702 127.34048,14.4702 C 129.54048,12.4702 131.64048,10.2702 132.04048,9.6702 C 132.54048,8.8702 116.14048,8.5702 69.240481,8.5702 L 5.740481,8.5702 L 5.940481,14.4702 z" />
  </g>
</svg>
