<?xml version="1.0" encoding="utf-8"?>
<!-- Generator: Adobe Illustrator 19.2.0, SVG Export Plug-In . SVG Version: 6.00 Build 0)  -->
<svg version="1.1" id="Layer_1" xmlns="http://www.w3.org/2000/svg" xmlns:xlink="http://www.w3.org/1999/xlink" x="0px" y="0px"
	 viewBox="0 0 64.8 50.5" style="enable-background:new 0 0 64.8 50.5;" xml:space="preserve">
<style type="text/css">
	.st0{fill:none;stroke:#FFFFFF;stroke-width:0.6975;}
	.st1{fill:none;stroke:#FFFFFF;stroke-width:0.6975;stroke-miterlimit:10;}
	.st2{fill:none;stroke:#FFFFFF;stroke-width:0.6975;stroke-linecap:round;stroke-linejoin:round;}
	.st3{fill:none;stroke:#FFFFFF;stroke-miterlimit:10;}
	.st4{fill:none;stroke:#FFFFFF;stroke-width:0.5;}
</style>
<g>
	<g>
		<g transform="translate(-59.69 -232.46)">
			<circle id="c" class="st0" cx="-15.4" cy="7.4" r="0.4"/>
		</g>
		<g transform="translate(-115.62 -210.31)">
			<circle id="c_1_" class="st0" cx="-19.6" cy="9" r="0.4"/>
		</g>
		<g transform="translate(-164.29 -174.95)">
			<circle id="c_2_" class="st0" cx="-23.3" cy="11.7" r="0.4"/>
		</g>
		<g transform="translate(-202.64 -128.6)">
			<circle id="c_3_" class="st0" cx="-26.1" cy="15.1" r="0.4"/>
		</g>
		<g transform="translate(-228.25 -74.16)">
			<circle id="c_4_" class="st0" cx="-28" cy="19.2" r="0.4"/>
		</g>
		<g transform="translate(-239.53 -15.07)">
			<circle id="c_5_" class="st0" cx="-28.9" cy="23.6" r="0.4"/>
		</g>
		<g transform="translate(-235.75 44.97)">
			<circle id="c_6_" class="st0" cx="-28.6" cy="28.1" r="0.4"/>
		</g>
		<g transform="translate(-217.16 102.19)">
			<circle id="c_7_" class="st0" cx="-27.2" cy="32.4" r="0.4"/>
		</g>
		<g transform="translate(-184.92 152.98)">
			<circle id="c_8_" class="st0" cx="-24.8" cy="36.2" r="0.4"/>
		</g>
		<g transform="translate(-141.07 194.16)">
			<circle id="c_9_" class="st0" cx="-21.5" cy="39.2" r="0.4"/>
		</g>
		<g transform="translate(-88.35 223.15)">
			<circle id="c_10_" class="st0" cx="-17.6" cy="41.4" r="0.4"/>
		</g>
		<g transform="translate(-30.08 238.11)">
			<circle id="c_11_" class="st0" cx="-13.2" cy="42.5" r="0.4"/>
		</g>
		<g transform="translate(30.08 238.11)">
			<circle id="c_12_" class="st0" cx="-8.7" cy="42.5" r="0.4"/>
		</g>
		<g transform="translate(88.35 223.15)">
			<circle id="c_13_" class="st0" cx="-4.4" cy="41.4" r="0.4"/>
		</g>
		<g transform="translate(141.07 194.16)">
			<circle id="c_14_" class="st0" cx="-0.4" cy="39.2" r="0.4"/>
		</g>
		<g transform="translate(184.92 152.98)">
			<circle id="c_15_" class="st0" cx="2.8" cy="36.2" r="0.4"/>
		</g>
		<g transform="translate(217.16 102.19)">
			<circle id="c_16_" class="st0" cx="5.3" cy="32.4" r="0.4"/>
		</g>
		<g transform="translate(235.75 44.97)">
			<circle id="c_17_" class="st0" cx="6.6" cy="28.1" r="0.4"/>
		</g>
		<g transform="translate(239.53 -15.07)">
			<circle id="c_18_" class="st0" cx="6.9" cy="23.6" r="0.4"/>
		</g>
		<g transform="translate(228.25 -74.16)">
			<circle id="c_19_" class="st0" cx="6.1" cy="19.2" r="0.4"/>
		</g>
		<g transform="translate(202.64 -128.6)">
			<circle id="c_20_" class="st0" cx="4.2" cy="15.1" r="0.4"/>
		</g>
		<g transform="translate(164.29 -174.95)">
			<circle id="c_21_" class="st0" cx="1.3" cy="11.7" r="0.4"/>
		</g>
		<g transform="translate(115.62 -210.31)">
			<circle id="c_22_" class="st0" cx="-2.3" cy="9" r="0.4"/>
		</g>
		<g transform="translate(59.69 -232.46)">
			<circle id="c_23_" class="st0" cx="-6.5" cy="7.4" r="0.4"/>
		</g>
		<g transform="translate(0 -240)">
			<circle id="c_24_" class="st0" cx="-11" cy="6.8" r="0.4"/>
		</g>
	</g>
	<g id="XMLID_2_">
		<g>
			<path class="st1" d="M48.8,29.6l0.7-3.7L45.3,24c-0.1-1.2-0.3-2.4-0.6-3.6l3.4-3.3l-1.9-3.3l-4.6,1.3c-0.8-0.9-1.7-1.6-2.7-2.3
				l0.5-4.9l-3.5-1.3l-2.7,4c-0.6-0.1-1.3-0.1-1.9-0.1c-0.5,0-1,0-1.5,0.1l-2.7-4.1l-3.5,1.3l0.5,4.8c-1,0.6-1.9,1.4-2.8,2.2
				l-4.6-1.3l-1.9,3.3l3.3,3.2c-0.4,1.2-0.6,2.4-0.7,3.6l-4.3,1.9l0.7,3.7l4.5,0.3c0.5,1.2,1.1,2.4,1.9,3.4l-0.9,1.8L18.2,37
				l2.9,2.4l3.6-2.6c1.1,0.6,2.4,1.1,3.7,1.4l1.1,4.3h3.8l1.1-4.3c1.3-0.3,2.6-0.7,3.7-1.3l3.6,2.6l2.9-2.4l-2-4
				c0.8-1,1.4-2.1,1.9-3.3L48.8,29.6z"/>
		</g>
	</g>
	<path id="path3590_3_" class="st2" d="M19.9,20.1c-0.2-0.5,0-2.5,1.6-3.2"/>
	<path id="path3590_4_" class="st2" d="M32.9,37.1c-0.4,0.3-1.3,0.8-2.6,0.3"/>
	<path id="path3590_1_" class="st2" d="M41.3,17c0.8,0.5,1.7,1.6,1.7,2.4"/>
	<path id="path3594" class="st0" d="M21.1,18.8c-0.8-0.5-0.8-1.2,0-1.6l8.7-5c0.8-0.5,2.1-0.5,2.9,0l8.7,5c0.8,0.5,0.8,1.2,0,1.6
		l-8.7,5c-0.8,0.5-2.1,0.5-2.9,0L21.1,18.8z"/>
	<path id="circle3602" class="st3" d="M32.5,17.2c0.7,0.4,0.7,1,0,1.4c-0.7,0.4-1.7,0.4-2.4,0c-0.7-0.4-0.7-1,0-1.4
		C30.7,16.9,31.8,16.9,32.5,17.2z"/>
	<path id="path3608" class="st0" d="M31.5,36.5c0,0.9-0.6,1.3-1.4,0.8l-8.7-5c-0.8-0.5-1.4-1.6-1.4-2.5v-10c0-0.9,0.6-1.3,1.4-0.8
		l8.7,5c0.8,0.5,1.4,1.6,1.4,2.5V36.5z"/>
	<path id="circle3610" class="st3" d="M27.9,33.3c0-0.8,0.5-1.1,1.2-0.7c0.7,0.4,1.2,1.3,1.2,2.1s-0.5,1.1-1.2,0.7
		S27.9,34.1,27.9,33.3z"/>
	<path id="circle3614" class="st3" d="M21.1,21.5c0-0.8,0.5-1.1,1.2-0.7s1.2,1.3,1.2,2.1c0,0.8-0.5,1.1-1.2,0.7S21.1,22.3,21.1,21.5
		z"/>
	<path id="path3622" class="st0" d="M41.6,18.7c0.8-0.5,1.4-0.1,1.4,0.8v10c0,0.9-0.6,2-1.4,2.5l-8.7,5c-0.8,0.5-1.4,0.1-1.4-0.8
		v-10c0-0.9,0.6-2,1.4-2.5L41.6,18.7z"/>
	<path id="circle3624" class="st3" d="M40.6,23.4c-0.7,0.4-1.2,0.1-1.2-0.7c0-0.8,0.5-1.7,1.2-2.1s1.2-0.1,1.2,0.7
		C41.8,22,41.3,23,40.6,23.4z"/>
	<path id="circle3628" class="st3" d="M33.9,35.1c-0.7,0.4-1.2,0.1-1.2-0.7s0.5-1.7,1.2-2.1c0.7-0.4,1.2-0.1,1.2,0.7
		S34.5,34.7,33.9,35.1z"/>
	<path id="circle3630" class="st3" d="M37.2,29.2c-0.7,0.4-1.2,0.1-1.2-0.7c0-0.8,0.5-1.7,1.2-2.1s1.2-0.1,1.2,0.7
		C38.4,27.9,37.9,28.8,37.2,29.2z"/>
</g>
<g>
	<path class="st4" d="M4.5,49.1c-0.1-0.1-0.2-0.2-0.2-0.3c0,0,0.1,0,0.1,0c-0.2-0.5,0.2-1.4,0.2-1.8c0.1-0.8,0.3-1.7,0.5-2.5
		c0-0.1,0.1-0.8,0.3-0.9c0.2-0.1,0.4,0.2,0.5,0.2c0.3-0.1,0.7-0.6,0.9-0.9c0.4-0.6,1.2-1.7,2-1.5c1.2,0.4,2.1,2.1,2.3,3.2
		c0.3,1.9-2,2.2-3.3,2.8c0,0.6,2.1,1,2.4,1.1c0.4,0.1,1.1,0.1,1.4,0.3c0.4,0.3,0.1,1.2,0.4,1.2c-0.4,0.3-0.5,0.6-1.1,0.6
		c-0.5,0-1-0.2-1.5-0.3c-1.1-0.4-2.1-0.8-3-1.6c-0.2,0.1-0.2,0.7-0.3,0.9c-0.1,0.3-0.4,0.7-0.8,0.8C4.9,50.2,4.3,49.6,4.5,49.1
		C4.5,49.1,4.5,49.1,4.5,49.1z M8.4,43.7c-0.4,0.6-1.1,1-1.2,1.7c0.5-0.1,1.6-0.3,1.9-0.6C9.4,44.5,8.9,43.9,8.4,43.7
		C8.3,43.9,8.6,43.8,8.4,43.7z"/>
	<path class="st4" d="M18.8,46.6c0,0.6,0.4,1,0.2,1.6c-0.1,0.5-0.4,0.8-0.8,1.1c-0.8,0.6-2.2,1-3.2,1c-1.1,0.1-2.2-0.1-2.7-1.2
		c-0.6-1.2,0.2-2.5,0.9-3.4c0.5-0.6,1-1.1,1.6-1.6c0.2-0.1,0.4-0.3,0.5-0.5c0.1-0.1,0.3-0.3,0.4-0.4c0.1-0.1,0.4-0.1,0.5-0.2
		c0.3-0.2,0.2-0.5,0.7-0.3c0.3,0.1,0.2,0.1,0.4,0.3c0.2,0.2,0.5,0.3,0.6,0.6c0.1,0.4-0.1,0.6-0.1,0.9C17.9,45.2,18.5,46.1,18.8,46.6
		C18.8,46.7,18.6,46.3,18.8,46.6z M17.3,47.7c0.2-0.5,0.2-0.5,0-1c-0.2-0.4-0.4-0.9-0.7-1.3c-0.1,0.1-0.4,0.2-0.5,0.2
		c-0.2,0-0.1-0.1-0.3,0c-0.2,0.1-0.4,0.3-0.6,0.4c-0.5,0.4-0.9,0.8-1.2,1.4c-0.1,0.2-0.4,0.7-0.3,0.9c0.2,0.3,0.9,0.2,1.2,0.2
		C15.8,48.4,16.5,48.1,17.3,47.7C17.3,47.6,17.1,47.8,17.3,47.7z"/>
	<path class="st4" d="M19.4,44.8c0.3-0.9,1.8-1.2,2.6-1.4c0.8-0.3,2.7-0.9,3.5-0.4c0.1,0.1,0.6,0.9,0.6,1.1c0.1,0.7-0.6,0.6-1,0.5
		c-0.4,0-0.9,0-1.3,0c-0.5,0-1,0.3-1.6,0.3c0,0.2,0.6,0.4,0.7,0.5c0.5,0.3,0.6,0.5,0.8,0.9c0.4,0.7,0.8,1.2,0.2,2.1
		c-0.6,0.9-3.7,2.8-4,1.2c0-0.1-0.1-0.4-0.1-0.6c0.1-0.6,0.6-0.4,1.1-0.5c0.4-0.1,2.3-0.8,2.1-1.5c-0.2-0.5-1.8-0.6-2.2-0.6
		c-0.4,0-0.9-0.1-1.1-0.4C19.3,45.7,19.5,45.3,19.4,44.8C19.5,44.6,19.5,44.9,19.4,44.8z"/>
	<path class="st4" d="M25,44.8c0.3-0.9,1.8-1.2,2.6-1.4c0.8-0.3,2.7-0.9,3.5-0.4c0.1,0.1,0.6,0.9,0.6,1.1c0.1,0.7-0.6,0.6-1,0.5
		c-0.4,0-0.9,0-1.3,0c-0.5,0-1,0.3-1.6,0.3c0,0.2,0.6,0.4,0.7,0.5c0.5,0.3,0.6,0.5,0.8,0.9c0.4,0.7,0.8,1.2,0.2,2.1
		c-0.6,0.9-3.7,2.8-4,1.2c0-0.1-0.1-0.4-0.1-0.6c0.1-0.6,0.6-0.4,1.1-0.5c0.4-0.1,2.3-0.8,2.1-1.5c-0.2-0.5-1.8-0.6-2.2-0.6
		c-0.4,0-0.9-0.1-1.1-0.4C24.8,45.7,25.1,45.3,25,44.8C25.1,44.6,25,44.9,25,44.8z"/>
	<path class="st4" d="M32.9,49.3c0.1,0.6-0.6,1.3-1.2,0.9c-0.3-0.2-0.6-1.3-0.6-1.7c-0.1-1.3,0.3-3,0.7-4.1c0.1-0.5,0.2-1,0.7-1.3
		c0.6-0.3,0.5-0.1,0.7,0.3c0.2,0.3,0.2,0.5,0.3,0.8c0.3,0.7-0.1,1.3-0.3,2C32.9,47.2,32.7,48.2,32.9,49.3
		C32.9,49.5,32.8,48.9,32.9,49.3z"/>
	<path class="st4" d="M35.4,50.2c-1.5-0.4-0.8-2.6-0.5-3.6c0.2-0.7,0.3-1.4,0.2-2.2c0-0.4-0.5-1.4,0.1-1.4c0-0.4-0.5-1.2,0-1.6
		c0.3-0.2,1.8,0.6,2.2,0.8c1.3,0.5,2.8,1.4,3.4,2.7C42.4,48,37.4,49.3,35.4,50.2C35.2,50.1,35.9,50,35.4,50.2z M36.5,43.6
		c-0.2,0,0.1,1.6,0.1,1.8c0,0.7-0.1,1.5-0.2,2.2c0.7-0.1,1.3-0.5,1.9-0.8c0.5-0.2,1.4-0.7,1.2-1.3c-0.2-0.4-0.9-0.8-1.2-1.1
		C37.8,44,37,44,36.5,43.6C36.5,43.6,36.6,43.6,36.5,43.6z"/>
	<path class="st4" d="M47.5,49.1c-0.2,0.6-1.2,1.6-1.8,0.9c-0.2-0.2-0.3-0.6-0.6-0.9c0.3-0.1,0.7-0.1,0.8-0.5c0.1-0.5-0.7-0.2-1-0.1
		c-0.8,0.1-1.3,0.1-1.4-0.8c-0.2,0.3-0.2,0.5-0.4,0.8c-0.2,0.4-0.2,1-0.6,1.4c-0.2,0.2-0.4,0.4-0.7,0.3c-0.6-0.1-0.4-0.7-0.8-1
		c0.4-0.4,0.6-1.3,0.8-1.9c0.3-0.6,0.5-1.2,0.8-1.7c0.2-0.5,0.5-1.2,1-1.5c0.2-0.1,0.4,0,0.6-0.2c0.3-0.2,0.5-0.8,0.8-0.9
		c0.2-0.1,1,0.1,1.3,0.3c0.3,0.3,0.3,1.3,0.4,1.8c0.1,0.3,0.1,0.7,0.2,1.1c0.3,0.6,0.1,0.1,0.5,0.3c0.3,0.1,0.6,0.4,0.9,0.5
		c-0.2,0.4-0.8,0.7-0.9,1C47.3,48.3,47.6,48.7,47.5,49.1z M44.1,47.1c0.4,0,0.9-0.1,1.3-0.2c-0.1-0.5-0.2-1-0.4-1.5
		c-0.3,0.6-0.8,1.1-1.2,1.7C43.9,47.1,44,47.1,44.1,47.1C44.4,47,44.1,47.1,44.1,47.1z"/>
	<path class="st4" d="M54.3,44.4c-0.5,0-1,0.1-1.5,0.2c-0.5,0.1-0.5,0-0.7,0.4c-0.3,0.6-0.5,1.3-0.8,1.9c-0.2,0.5-0.5,1-0.6,1.5
		c-0.1,0.2-0.1,0.3-0.1,0.5c0,0.5,0.1,0.2,0.2,0.6c0.1,0.2,0.3,0.4,0.1,0.7c-0.2,0.2-0.5,0.3-0.7,0.2c-0.6-0.1-0.8-0.7-0.9-1.2
		c-0.4-1.4,0.6-3,1.2-4.3c-0.7,0-1.9,0.4-2.4-0.2c-0.2-0.2-0.5-1.2-0.2-1.4c0.1,0,0.4,0,0.5,0c0.6,0,1.1-0.1,1.7-0.1
		c0.2,0,0.4,0,0.6-0.1c0.1,0,0.4-0.2,0.4-0.2c0.3-0.1,0.4,0.1,0.7,0.1c0.9,0.1,1.8-0.3,2.7-0.3c0.5,0,1.5,0.6,1.1,1.3
		C55.2,44.4,54.7,44.4,54.3,44.4z"/>
	<path class="st4" d="M59,49.1c-0.2,0.6-1.2,1.6-1.8,0.9c-0.2-0.2-0.3-0.6-0.6-0.9c0.3-0.1,0.7-0.1,0.8-0.5c0.1-0.5-0.7-0.2-1-0.1
		c-0.8,0.1-1.3,0.1-1.4-0.8c-0.2,0.3-0.2,0.5-0.4,0.8c-0.2,0.4-0.2,1-0.6,1.4c-0.2,0.2-0.4,0.4-0.7,0.3c-0.6-0.1-0.4-0.7-0.8-1
		c0.4-0.4,0.6-1.3,0.8-1.9c0.3-0.6,0.5-1.2,0.8-1.7c0.2-0.5,0.5-1.2,1-1.5c0.2-0.1,0.4,0,0.6-0.2c0.3-0.2,0.5-0.8,0.8-0.9
		c0.2-0.1,1,0.1,1.3,0.3c0.3,0.3,0.3,1.3,0.4,1.8c0.1,0.3,0.1,0.7,0.2,1.1c0.3,0.6,0.1,0.1,0.5,0.3c0.3,0.1,0.6,0.4,0.9,0.5
		c-0.2,0.4-0.8,0.7-0.9,1C58.9,48.3,59.1,48.7,59,49.1z M55.6,47.1c0.4,0,0.9-0.1,1.3-0.2c-0.1-0.5-0.2-1-0.4-1.5
		c-0.3,0.6-0.8,1.1-1.2,1.7C55.5,47.1,55.6,47.1,55.6,47.1C55.9,47,55.6,47.1,55.6,47.1z"/>
</g>
</svg>
