<svg version="1.1" id="MN" xmlns="http://www.w3.org/2000/svg" xmlns:xlink="http://www.w3.org/1999/xlink" x="0px" y="0px"
	 viewBox="258 -8000 1068 12180" enable-background="new 258 -8 1068 1218" xml:space="preserve">
<path fill="lightgrey"     d="M281,215.2c-1,1.1-0.2,3.4-0.5,5.1
	c-0.2,1.8-1,3-1.4,4.7c-0.5,1.6-0.4,3.4-0.4,5.1c0,1.8-0.2,3.2-0.6,5.2c-0.6,3.8,1.2,6.3,2,9.6c0.1,0.5,0.1,2,0.4,2.5
	c0.4,0.7,0.9,0.9,1.2,1.5c1.2,2,1.7,1.8,2,4.6c0.1,2-0.1,3.1,0.9,4.8c1,1.7,2.1,2.2,2.5,4.6c0.2,1.8-0.1,3.7,0,5.5
	c0,0.9-0.2,2,0.1,2.7c0.2,0.6,1.5,1,1.6,1.6c0.6,1.7-0.2,2.2-0.9,4.1c-0.6,2.1-0.4,3.1,0.4,5.2c0.5,1.4,1,2.6,2.1,3.6
	c1.5,1.5,3.2,0.9,3.6,3.2c0.1,0.9-0.7,2.5-0.9,3.3c-0.1,1.5,0.4,2.5,0.5,3.7c0.5,3.2,0.9,3.4,2.8,5.9c1.6,2,2.7,4.6,2.3,6.8
	c-0.4,2-2,4.9,1.6,5.5c0.1,1.2-0.1,2.7,0.4,3.8c0.4,0.7,1.8,1.5,2.3,2.3c1.4,2.2,1,5.3,1.4,7.8c0.9,4.7,4.2,8.3,4.3,13.4
	c0,2.8,0,5.1,1.2,7.5c1.1,2,3.2,3.4,3.4,5.9c0.1,0.7-0.1,3.2-0.6,3.7c-1,1.5-2-0.1-2.2,2.3c-0.2,2.3,2.2,3.9,1.7,6.9
	c-0.2,0-0.5,0.1-0.7,0.1c-0.5,1.7,0.6,3,0.9,4.6c0.4,2-0.2,3.1-1.1,4.7c-1,2-1.5,2.2-1.4,4.2c0.1,1.6,0.9,3,1,4.7
	c0.1,1.5-0.9,3.6-0.4,4.7c0.4,1.1,2.3,1.8,2.8,3.1c1.4,3.2-0.6,6.9-0.1,10.1c-0.1-0.1-0.2-0.2-0.4-0.2c-1.6,13.7,0.9,27.2-0.1,40.8
	c-0.2,3.6,0.1,7.1-0.5,10.7c-0.5,3.2-1,6.3-1,9.7c0,1.6,0.4,3.6-0.1,5.1c-0.2,0.7-1.4,1.5-1.4,2.5c0.1,1.1,1.1,1,1.4,1.5
	c0.5,1.5,0.2,10.1,3.7,7.9c0.6,1.2,0.5,2.5,1,3.7c0.9,1.8,1.4,1.4,2.8,2.3c3.6,2.3,1.1,3.7,1.4,7.4c-0.5-0.1-1.2,0.2-1.7,0.1
	c-0.2,2.2-0.1,3.1-1.1,4.9c-0.5,0.9-1.2,0.7-1.6,2c-0.4,1-0.1,2.2-0.1,3.2c0,0.9,0.2,2,0,2.8c-0.2,1.1-1.1,1.4-1.4,2
	c-0.9,2.1-0.2,3.2,0.2,5.2c1.6,6.5,1.8,15.6-0.2,22.2c-1.1,3.4-3.9,6.5-2.8,10.1c1.1,3.4,3,6.2,4.7,9.2c3.7,6.4,0.2,15.5,3.6,21.9
	c0.7,1.4,1.6,1.1,2.5,2.2s0.6,2.5,0.7,3.8c0.5,3,0.4,5.9,2.5,8.4c1.8,2.3,2.6,3.3,3.4,6.2c0.9,2.7,3.7,4.6,3.4,7.8
	c1.5,0.6,3.7,2,4.6,3.3c1,1.5,0.7,6.5,1.4,6.5l-0.5,4.7c0,0.2-0.7,2.8-0.9,3.8c0,1.8,1,3.1,0.9,5.1c-0.1,1.8-1.5,2.6-0.6,4.7
	c0.7,1.7,2.1,1.7,2.5,3.7c0.2,1.7-0.6,3.2-0.4,5.1c0.2,1.7,0.9,3.2,0.9,5.2c0,4.1,1,7.5,1.4,11.1c0.4,4.3-2.1,6.5-2.8,10.2
	c-0.6,3.3-0.2,8.3,0,11.6c0.7,7.5,1.1,15.2,0,22.8c-1.1,7.8-4.7,12-9.1,18.2c-2.2,3.1-4.1,6.3-6.7,9.1c-2.6,2.8-6.3,4.4-9.7,6.2
	c-5.1,2.5-13.9,6.8-15.3,12.6c-0.9,3.6-1.1,6.2,0.9,9.2c1.6,2.6,3.6,4.7,5.1,7.4c3,5.5,3.6,11.3,6.7,16.8c1.5,2.7,3.6,5.1,5.5,7.3
	c1.8,2.1,3.4,5.3,5.9,6.8c2.7,1.5,6.4,0.2,9.4,1.2c2.7,1,4.9,3.6,7.4,5.1c3,1.7,5.1,2.8,7.5,5.4c1.7,1.7,3.4,5.3,4.6,6.2l0.5,3.2
	L338.2,1186l771,7.9c0,0-4.2-7-3.7-11.1c0.5-4.2-1.8-7.4-3.7-15.8s2.3-17.6,2.3-24.1s-9.7-25.1-16.8-34.4
	c-7-9.2-22.8-18.6-31.2-20.9c-8.4-2.3-8.9-7.9-17.6-14.9c-8.9-7-7.9-6-16.8-11.6c-8.9-5.5-12.6-10.2-12.6-15.8c0-5.5-7-7-6.5-13.9
	c0.5-7-3.2-11.6-16.8-17.1c-13.4-5.5-27.8-9.2-32-14.9c-4.2-5.7-2.3-17.6-11.6-18.6c-9.2-1-22.8-1-28.8-3.2c-6-2.3-4.2-7-8.9-7.9
	c-4.7-1-0.5-6.5-7.9-12.6c-7.4-6-20.5-13.1-21.3-14.4c-0.9-1.4-1.4-5.1,2.3-13.1c3.7-7.9,5.5-13.1,3.2-16.8
	c-2.3-3.7,1.4-4.2,1.4-8.9s0.5-12.1-3.2-18.1s-5.5-11.6-1-14.9c4.7-3.2,5.5-5.5,5.1-11.6s-3.2-7-1.8-11.1c1.4-4.2-1.8-13.1,1.8-18.1
	c3.7-5.1,6.5-2.3,7.4-6.5c1-4.2-1.4-6.5,2.3-9.7c3.7-3.2,6.5-7.9,5.5-12.1c-1-4.2-5.5-4.7-8.4-9.2c-2.8-4.7-5.1-9.7-6-15.3
	c-1-5.5-2.3-3.2-8.9-2.8c-6.5,0.4-11.6,5.1-11.6-10.7c0-15.8,0-17.6,4.7-20.9s11.6-8.4,12.6-13.9c1-5.5,2.3-14.9,6.5-19.1
	c4.2-4.2,16.3-12.1,20-12.1s2.8-5.5,7.4-6.5c4.7-1,6,3.2,8.4,0c2.3-3.2,1.8-8.9,7.4-7.9c5.5,1,8.9,3.9,10.2-0.1
	c1.4-4.1,1.8-9.2,4.2-8.7s2.3,0.5,2.3,0.5l-0.5-121.7h11.1c0,0,4.7-3.7,5.1-5.5c0.4-1.8-1-4.7,2.8-7c3.7-2.3,7.9-2.8,8.9-7
	c1-4.2-5.1-5.5,1.4-10.7c6.5-5.1,30.2-18.1,37.6-24.6c7.4-6.5,35.7-34.4,40.9-38.1s13.9-11.6,18.6-17.1c4.7-5.5,25.1-27.8,27.4-31.5
	c2.3-3.7,21.8-27.8,32.5-35.4c10.7-7.4,45.1-33.9,56.2-38.1c11.1-4.2,34.9-14.4,40.4-15.3c5.5-0.9,11.6-2.8,14.4-4.7
	c2.8-1.8,15.3-7.9,19.5-9.7s35.7-19.5,41.4-25.5c5.5-6,9.7-9.2,9.7-9.2s-7.4,2.3-12.6,0s-7-3.2-10.7-2.8c-3.7,0.5-5.5,6-12.1,6.5
	c-6.5,0.5-11.1-0.5-13.9-3.7c-2.8-3.2-5.1-9.7-8.4-13.1c-3.2-3.2-13.9-4.7-21.3-4.7s-14.9-1.4-19.5,0c-4.7,1.4-9.2,4.7-12.1,2.8
	s-5.5-5.4-11.6-3.4c-6,2-8.9,4.8-10.2,1.6c-1.4-3.2-1.8-5.2-7.4-2.1c-5.5,3.1-14.4,9.1-17.6,6.3s-8.4-7.9-6-11.1s-4.2-7-6-10.2
	s-1.4-11.1-5.5-10.2c-4.2,0.9-19.5,7.4-25.1,11.1c-5.7,3.7-21.8,19.1-27,21.8c-5.1,2.8-4.2,4.7-11.1,4.2c-7-0.5-11.6,7.9-14.9,4.2
	c-3.2-3.7-16.3,2.3-17.1-3.2c-1-5.5-13.1-10.2-13.1-10.2s-8.9-1.8-7.9-9.7c1-7.9-1.4-7-1.4-7l-17.6-1l-5.1-5.1c0,0-5.5,1-10.2-2.8
	c-4.7-3.7-8.4-11.6-8.4-16.8c0-5.2-3.7-5.5-8.9-5.5s-12.2,1.8-20.5,3.2c-8.4,1.4-11.6,5.1-9.2,10.7s8.4,9.7,5.1,10.7
	c-3.2,1-8.4,5.1-11.6,3.2c-3.2-1.8-14.9-19.1-16.3-23.7c-1.4-4.7,2.3-8.4,1.8-12.6s-2.8-10.2-12.6-7.9c-9.7,2.3-16.3,4.7-19.1,1.4
	c-2.8-3.2-6.7-14.8-0.5-12.6c8.9,3.2,15.8-7,5.5-9.2c-10.2-2.3-15.3,0-25.1-6s-16.3-10.7-29.7-9.7c-13.4,1-20,0-21.8-2.8
	c-1.8-2.8-9.7-2.8-15.3,0c-5.5,2.8-3.2,7.4-7.9,6s-10.7,1.4-11.1,4.2c-0.5,2.8-1,8.4-2.1,8.9c-1.1,0.5-10.8,6.5-17.4,5.1
	c-6.5-1.4-6,0.5-12.6,1c-6.5,0.5-16.8,0.5-16.3-5.1c0.5-5.5,4.7-7.9,0.5-14.4c-4.2-6.5-13.4-4.2-24.1-5.5c-10.7-1.4-26-0.5-31.2-2.1
	c-5.1-1.6-4.7-6.8-6.5-10c-1.8-3.2-11.1-6-19.5-4.2c-8.4,1.8,0,6.5-8.4,5.1c-8.4-1.4-4.7,0.6-13.9-5.7c-9.2-6.3-17.6-11-16.3-21.2
	s6.5-11.1,2.8-21.3s-6.5-27.4-9.7-37.6c-3.2-10.2-5.1-17.6-6.5-28.3c-1.4-10.7,0-14.9,0-14.9s-6.8-3.2-14.7-7.9s-10.2-1.4-14.4,0
	s-9.7,1.7-12.6-2.5s-3.2,0-3.2,0L555,78.1L274.5,68c0,0-2.3,10.7,1.8,20.9s4.2,12.6,2.8,14.9s0.5,6.5,3.2,13.1s6,15.3,7,18.6
	c1,3.2-4.2,8.9-6,13.9c-1.8,5.1-6.5,4.7-3.2,12.1c3.2,7.4,0.5,7.9,1.8,13.4c1.4,5.5,3.2,9.7,1,12.6c-2.2,2.8-5.1,5.5-5.1,5.5
	s3.2,6,4.2,12.1L281,215.2z"/>
</svg>
