<?xml version="1.0" encoding="utf-8"?>
<!-- Generator: Adobe Illustrator 19.2.0, SVG Export Plug-In . SVG Version: 6.00 Build 0)  -->
<svg version="1.1" id="Capa_1" xmlns="http://www.w3.org/2000/svg" xmlns:xlink="http://www.w3.org/1999/xlink" x="0px" y="0px"
	 viewBox="0 0 337.8 337.8" style="enable-background:new 0 0 337.8 337.8;" xml:space="preserve">
<style type="text/css">
	.st0{fill:none;stroke:#00FF00;stroke-width:8;stroke-linecap:round;stroke-linejoin:round;stroke-miterlimit:10;}
</style>
<g>
	<circle class="st0" cx="201.7" cy="168.9" r="132.1"/>
	<circle class="st0" cx="23.6" cy="131.8" r="19.6"/>
	
		<ellipse transform="matrix(0.7465 -0.6654 0.6654 0.7465 -92.124 185.9471)" class="st0" cx="198" cy="213.9" rx="30.9" ry="17.7"/>
	<path class="st0" d="M74,202.7c30.8-18.5,61.6-42.4,90.4-71.2S217,72,235.5,41.2"/>
	<path class="st0" d="M84.7,230.4c34.4-19.3,69-45.3,101.1-77.4s58.1-66.7,77.4-101.1"/>
	<path class="st0" d="M155,119.9c24-24.2,45.7-50.8,64-79.6"/>
	<path class="st0" d="M221.1,193.4c0.9-0.8,1.7-1.7,2.6-2.5c33.5-33.5,60.5-69.8,80-105.8"/>
	<path class="st0" d="M117.9,270.8c18.9-10.3,37.9-22.6,56.6-36.8"/>
	<path class="st0" d="M147.8,289.5c33.6-19.1,67.3-44.6,98.6-75.9s56.8-65,75.9-98.6"/>
	<path class="st0" d="M279.4,201.5c17.6-20,33.7-41.4,47.5-64.2"/>
	<path class="st0" d="M170.2,294.2c12.2-7.4,24-15.5,35.4-24.1"/>
</g>
</svg>
