<!--?xml version="1.0" encoding="utf-8"?-->
<!-- Generator: Adobe Illustrator 19.2.0, SVG Export Plug-In . SVG Version: 6.00 Build 0)  -->
<svg version="1.1" id="Layer_1" xmlns="http://www.w3.org/2000/svg" xmlns:xlink="http://www.w3.org/1999/xlink" x="0px" y="0px" viewBox="0 0 64.8 50.5" style="" xml:space="preserve">
<!-- #0 0 64.8 50.5 -->
<style type="text/css">
	.st0{fill:none;stroke:#FFFFFF;stroke-width:0.6975;}
	.st1{fill:none;stroke:#FFFFFF;stroke-width:0.6975;stroke-miterlimit:10;}
	.st2{fill:none;stroke:#FFFFFF;stroke-width:0.6975;stroke-linecap:round;stroke-linejoin:round;}
	.st3{fill:none;stroke:#FFFFFF;stroke-miterlimit:10;}
	.st4{fill:none;stroke:#FFFFFF;stroke-width:0.5;}
</style>
<g>
	<g>
		<g transform="translate(-59.69 -232.46)">
			<path id="c" class="st0 QsUNcRah_0" d="M-15.8,7.4A0.4,0.4 0,1,1 -15,7.4A0.4,0.4 0,1,1 -15.8,7.4"></path>
		</g>
		<g transform="translate(-115.62 -210.31)">
			<path id="c_1_" class="st0 QsUNcRah_1" d="M-20,9A0.4,0.4 0,1,1 -19.200000000000003,9A0.4,0.4 0,1,1 -20,9"></path>
		</g>
		<g transform="translate(-164.29 -174.95)">
			<path id="c_2_" class="st0 QsUNcRah_2" d="M-23.7,11.7A0.4,0.4 0,1,1 -22.900000000000002,11.7A0.4,0.4 0,1,1 -23.7,11.7"></path>
		</g>
		<g transform="translate(-202.64 -128.6)">
			<path id="c_3_" class="st0 QsUNcRah_3" d="M-26.5,15.1A0.4,0.4 0,1,1 -25.700000000000003,15.1A0.4,0.4 0,1,1 -26.5,15.1"></path>
		</g>
		<g transform="translate(-228.25 -74.16)">
			<path id="c_4_" class="st0 QsUNcRah_4" d="M-28.4,19.2A0.4,0.4 0,1,1 -27.6,19.2A0.4,0.4 0,1,1 -28.4,19.2"></path>
		</g>
		<g transform="translate(-239.53 -15.07)">
			<path id="c_5_" class="st0 QsUNcRah_5" d="M-29.299999999999997,23.6A0.4,0.4 0,1,1 -28.5,23.6A0.4,0.4 0,1,1 -29.299999999999997,23.6"></path>
		</g>
		<g transform="translate(-235.75 44.97)">
			<path id="c_6_" class="st0 QsUNcRah_6" d="M-29,28.1A0.4,0.4 0,1,1 -28.200000000000003,28.1A0.4,0.4 0,1,1 -29,28.1"></path>
		</g>
		<g transform="translate(-217.16 102.19)">
			<path id="c_7_" class="st0 QsUNcRah_7" d="M-27.599999999999998,32.4A0.4,0.4 0,1,1 -26.8,32.4A0.4,0.4 0,1,1 -27.599999999999998,32.4"></path>
		</g>
		<g transform="translate(-184.92 152.98)">
			<path id="c_8_" class="st0 QsUNcRah_8" d="M-25.2,36.2A0.4,0.4 0,1,1 -24.400000000000002,36.2A0.4,0.4 0,1,1 -25.2,36.2"></path>
		</g>
		<g transform="translate(-141.07 194.16)">
			<path id="c_9_" class="st0 QsUNcRah_9" d="M-21.9,39.2A0.4,0.4 0,1,1 -21.1,39.2A0.4,0.4 0,1,1 -21.9,39.2"></path>
		</g>
		<g transform="translate(-88.35 223.15)">
			<path id="c_10_" class="st0 QsUNcRah_10" d="M-18,41.4A0.4,0.4 0,1,1 -17.200000000000003,41.4A0.4,0.4 0,1,1 -18,41.4"></path>
		</g>
		<g transform="translate(-30.08 238.11)">
			<path id="c_11_" class="st0 QsUNcRah_11" d="M-13.6,42.5A0.4,0.4 0,1,1 -12.799999999999999,42.5A0.4,0.4 0,1,1 -13.6,42.5"></path>
		</g>
		<g transform="translate(30.08 238.11)">
			<path id="c_12_" class="st0 QsUNcRah_12" d="M-9.1,42.5A0.4,0.4 0,1,1 -8.299999999999999,42.5A0.4,0.4 0,1,1 -9.1,42.5"></path>
		</g>
		<g transform="translate(88.35 223.15)">
			<path id="c_13_" class="st0 QsUNcRah_13" d="M-4.800000000000001,41.4A0.4,0.4 0,1,1 -4,41.4A0.4,0.4 0,1,1 -4.800000000000001,41.4"></path>
		</g>
		<g transform="translate(141.07 194.16)">
			<path id="c_14_" class="st0 QsUNcRah_14" d="M-0.8,39.2A0.4,0.4 0,1,1 0,39.2A0.4,0.4 0,1,1 -0.8,39.2"></path>
		</g>
		<g transform="translate(184.92 152.98)">
			<path id="c_15_" class="st0 QsUNcRah_15" d="M2.4,36.2A0.4,0.4 0,1,1 3.1999999999999997,36.2A0.4,0.4 0,1,1 2.4,36.2"></path>
		</g>
		<g transform="translate(217.16 102.19)">
			<path id="c_16_" class="st0 QsUNcRah_16" d="M4.8999999999999995,32.4A0.4,0.4 0,1,1 5.7,32.4A0.4,0.4 0,1,1 4.8999999999999995,32.4"></path>
		</g>
		<g transform="translate(235.75 44.97)">
			<path id="c_17_" class="st0 QsUNcRah_17" d="M6.199999999999999,28.1A0.4,0.4 0,1,1 7,28.1A0.4,0.4 0,1,1 6.199999999999999,28.1"></path>
		</g>
		<g transform="translate(239.53 -15.07)">
			<path id="c_18_" class="st0 QsUNcRah_18" d="M6.5,23.6A0.4,0.4 0,1,1 7.300000000000001,23.6A0.4,0.4 0,1,1 6.5,23.6"></path>
		</g>
		<g transform="translate(228.25 -74.16)">
			<path id="c_19_" class="st0 QsUNcRah_19" d="M5.699999999999999,19.2A0.4,0.4 0,1,1 6.5,19.2A0.4,0.4 0,1,1 5.699999999999999,19.2"></path>
		</g>
		<g transform="translate(202.64 -128.6)">
			<path id="c_20_" class="st0 QsUNcRah_20" d="M3.8000000000000003,15.1A0.4,0.4 0,1,1 4.6000000000000005,15.1A0.4,0.4 0,1,1 3.8000000000000003,15.1"></path>
		</g>
		<g transform="translate(164.29 -174.95)">
			<path id="c_21_" class="st0 QsUNcRah_21" d="M0.9,11.7A0.4,0.4 0,1,1 1.7000000000000002,11.7A0.4,0.4 0,1,1 0.9,11.7"></path>
		</g>
		<g transform="translate(115.62 -210.31)">
			<path id="c_22_" class="st0 QsUNcRah_22" d="M-2.6999999999999997,9A0.4,0.4 0,1,1 -1.9,9A0.4,0.4 0,1,1 -2.6999999999999997,9"></path>
		</g>
		<g transform="translate(59.69 -232.46)">
			<path id="c_23_" class="st0 QsUNcRah_23" d="M-6.9,7.4A0.4,0.4 0,1,1 -6.1,7.4A0.4,0.4 0,1,1 -6.9,7.4"></path>
		</g>
		<g transform="translate(0 -240)">
			<path id="c_24_" class="st0 QsUNcRah_24" d="M-11.4,6.8A0.4,0.4 0,1,1 -10.6,6.8A0.4,0.4 0,1,1 -11.4,6.8"></path>
		</g>
	</g>
	<g id="XMLID_2_">
		<g>
			<path class="st1 QsUNcRah_25" d="M48.8,29.6l0.7-3.7L45.3,24c-0.1-1.2-0.3-2.4-0.6-3.6l3.4-3.3l-1.9-3.3l-4.6,1.3c-0.8-0.9-1.7-1.6-2.7-2.3
				l0.5-4.9l-3.5-1.3l-2.7,4c-0.6-0.1-1.3-0.1-1.9-0.1c-0.5,0-1,0-1.5,0.1l-2.7-4.1l-3.5,1.3l0.5,4.8c-1,0.6-1.9,1.4-2.8,2.2
				l-4.6-1.3l-1.9,3.3l3.3,3.2c-0.4,1.2-0.6,2.4-0.7,3.6l-4.3,1.9l0.7,3.7l4.5,0.3c0.5,1.2,1.1,2.4,1.9,3.4l-0.9,1.8L18.2,37
				l2.9,2.4l3.6-2.6c1.1,0.6,2.4,1.1,3.7,1.4l1.1,4.3h3.8l1.1-4.3c1.3-0.3,2.6-0.7,3.7-1.3l3.6,2.6l2.9-2.4l-2-4
				c0.8-1,1.4-2.1,1.9-3.3L48.8,29.6z"></path>
		</g>
	</g>
	<path id="path3590_3_" class="st2 QsUNcRah_26" d="M19.9,20.1c-0.2-0.5,0-2.5,1.6-3.2"></path>
	<path id="path3590_4_" class="st2 QsUNcRah_27" d="M32.9,37.1c-0.4,0.3-1.3,0.8-2.6,0.3"></path>
	<path id="path3590_1_" class="st2 QsUNcRah_28" d="M41.3,17c0.8,0.5,1.7,1.6,1.7,2.4"></path>
	<path id="path3594" class="st0 QsUNcRah_29" d="M21.1,18.8c-0.8-0.5-0.8-1.2,0-1.6l8.7-5c0.8-0.5,2.1-0.5,2.9,0l8.7,5c0.8,0.5,0.8,1.2,0,1.6
		l-8.7,5c-0.8,0.5-2.1,0.5-2.9,0L21.1,18.8z"></path>
	<path id="circle3602" class="st3 QsUNcRah_30" d="M32.5,17.2c0.7,0.4,0.7,1,0,1.4c-0.7,0.4-1.7,0.4-2.4,0c-0.7-0.4-0.7-1,0-1.4
		C30.7,16.9,31.8,16.9,32.5,17.2z"></path>
	<path id="path3608" class="st0 QsUNcRah_31" d="M31.5,36.5c0,0.9-0.6,1.3-1.4,0.8l-8.7-5c-0.8-0.5-1.4-1.6-1.4-2.5v-10c0-0.9,0.6-1.3,1.4-0.8
		l8.7,5c0.8,0.5,1.4,1.6,1.4,2.5V36.5z"></path>
	<path id="circle3610" class="st3 QsUNcRah_32" d="M27.9,33.3c0-0.8,0.5-1.1,1.2-0.7c0.7,0.4,1.2,1.3,1.2,2.1s-0.5,1.1-1.2,0.7
		S27.9,34.1,27.9,33.3z"></path>
	<path id="circle3614" class="st3 QsUNcRah_33" d="M21.1,21.5c0-0.8,0.5-1.1,1.2-0.7s1.2,1.3,1.2,2.1c0,0.8-0.5,1.1-1.2,0.7S21.1,22.3,21.1,21.5
		z"></path>
	<path id="path3622" class="st0 QsUNcRah_34" d="M41.6,18.7c0.8-0.5,1.4-0.1,1.4,0.8v10c0,0.9-0.6,2-1.4,2.5l-8.7,5c-0.8,0.5-1.4,0.1-1.4-0.8
		v-10c0-0.9,0.6-2,1.4-2.5L41.6,18.7z"></path>
	<path id="circle3624" class="st3 QsUNcRah_35" d="M40.6,23.4c-0.7,0.4-1.2,0.1-1.2-0.7c0-0.8,0.5-1.7,1.2-2.1s1.2-0.1,1.2,0.7
		C41.8,22,41.3,23,40.6,23.4z"></path>
	<path id="circle3628" class="st3 QsUNcRah_36" d="M33.9,35.1c-0.7,0.4-1.2,0.1-1.2-0.7s0.5-1.7,1.2-2.1c0.7-0.4,1.2-0.1,1.2,0.7
		S34.5,34.7,33.9,35.1z"></path>
	<path id="circle3630" class="st3 QsUNcRah_37" d="M37.2,29.2c-0.7,0.4-1.2,0.1-1.2-0.7c0-0.8,0.5-1.7,1.2-2.1s1.2-0.1,1.2,0.7
		C38.4,27.9,37.9,28.8,37.2,29.2z"></path>
</g>
<g>
	<path class="st4 QsUNcRah_38" d="M4.5,49.1c-0.1-0.1-0.2-0.2-0.2-0.3c0,0,0.1,0,0.1,0c-0.2-0.5,0.2-1.4,0.2-1.8c0.1-0.8,0.3-1.7,0.5-2.5
		c0-0.1,0.1-0.8,0.3-0.9c0.2-0.1,0.4,0.2,0.5,0.2c0.3-0.1,0.7-0.6,0.9-0.9c0.4-0.6,1.2-1.7,2-1.5c1.2,0.4,2.1,2.1,2.3,3.2
		c0.3,1.9-2,2.2-3.3,2.8c0,0.6,2.1,1,2.4,1.1c0.4,0.1,1.1,0.1,1.4,0.3c0.4,0.3,0.1,1.2,0.4,1.2c-0.4,0.3-0.5,0.6-1.1,0.6
		c-0.5,0-1-0.2-1.5-0.3c-1.1-0.4-2.1-0.8-3-1.6c-0.2,0.1-0.2,0.7-0.3,0.9c-0.1,0.3-0.4,0.7-0.8,0.8C4.9,50.2,4.3,49.6,4.5,49.1
		C4.5,49.1,4.5,49.1,4.5,49.1z M8.4,43.7c-0.4,0.6-1.1,1-1.2,1.7c0.5-0.1,1.6-0.3,1.9-0.6C9.4,44.5,8.9,43.9,8.4,43.7
		C8.3,43.9,8.6,43.8,8.4,43.7z"></path>
	<path class="st4 QsUNcRah_39" d="M18.8,46.6c0,0.6,0.4,1,0.2,1.6c-0.1,0.5-0.4,0.8-0.8,1.1c-0.8,0.6-2.2,1-3.2,1c-1.1,0.1-2.2-0.1-2.7-1.2
		c-0.6-1.2,0.2-2.5,0.9-3.4c0.5-0.6,1-1.1,1.6-1.6c0.2-0.1,0.4-0.3,0.5-0.5c0.1-0.1,0.3-0.3,0.4-0.4c0.1-0.1,0.4-0.1,0.5-0.2
		c0.3-0.2,0.2-0.5,0.7-0.3c0.3,0.1,0.2,0.1,0.4,0.3c0.2,0.2,0.5,0.3,0.6,0.6c0.1,0.4-0.1,0.6-0.1,0.9C17.9,45.2,18.5,46.1,18.8,46.6
		C18.8,46.7,18.6,46.3,18.8,46.6z M17.3,47.7c0.2-0.5,0.2-0.5,0-1c-0.2-0.4-0.4-0.9-0.7-1.3c-0.1,0.1-0.4,0.2-0.5,0.2
		c-0.2,0-0.1-0.1-0.3,0c-0.2,0.1-0.4,0.3-0.6,0.4c-0.5,0.4-0.9,0.8-1.2,1.4c-0.1,0.2-0.4,0.7-0.3,0.9c0.2,0.3,0.9,0.2,1.2,0.2
		C15.8,48.4,16.5,48.1,17.3,47.7C17.3,47.6,17.1,47.8,17.3,47.7z"></path>
	<path class="st4 QsUNcRah_40" d="M19.4,44.8c0.3-0.9,1.8-1.2,2.6-1.4c0.8-0.3,2.7-0.9,3.5-0.4c0.1,0.1,0.6,0.9,0.6,1.1c0.1,0.7-0.6,0.6-1,0.5
		c-0.4,0-0.9,0-1.3,0c-0.5,0-1,0.3-1.6,0.3c0,0.2,0.6,0.4,0.7,0.5c0.5,0.3,0.6,0.5,0.8,0.9c0.4,0.7,0.8,1.2,0.2,2.1
		c-0.6,0.9-3.7,2.8-4,1.2c0-0.1-0.1-0.4-0.1-0.6c0.1-0.6,0.6-0.4,1.1-0.5c0.4-0.1,2.3-0.8,2.1-1.5c-0.2-0.5-1.8-0.6-2.2-0.6
		c-0.4,0-0.9-0.1-1.1-0.4C19.3,45.7,19.5,45.3,19.4,44.8C19.5,44.6,19.5,44.9,19.4,44.8z"></path>
	<path class="st4 QsUNcRah_41" d="M25,44.8c0.3-0.9,1.8-1.2,2.6-1.4c0.8-0.3,2.7-0.9,3.5-0.4c0.1,0.1,0.6,0.9,0.6,1.1c0.1,0.7-0.6,0.6-1,0.5
		c-0.4,0-0.9,0-1.3,0c-0.5,0-1,0.3-1.6,0.3c0,0.2,0.6,0.4,0.7,0.5c0.5,0.3,0.6,0.5,0.8,0.9c0.4,0.7,0.8,1.2,0.2,2.1
		c-0.6,0.9-3.7,2.8-4,1.2c0-0.1-0.1-0.4-0.1-0.6c0.1-0.6,0.6-0.4,1.1-0.5c0.4-0.1,2.3-0.8,2.1-1.5c-0.2-0.5-1.8-0.6-2.2-0.6
		c-0.4,0-0.9-0.1-1.1-0.4C24.8,45.7,25.1,45.3,25,44.8C25.1,44.6,25,44.9,25,44.8z"></path>
	<path class="st4 QsUNcRah_42" d="M32.9,49.3c0.1,0.6-0.6,1.3-1.2,0.9c-0.3-0.2-0.6-1.3-0.6-1.7c-0.1-1.3,0.3-3,0.7-4.1c0.1-0.5,0.2-1,0.7-1.3
		c0.6-0.3,0.5-0.1,0.7,0.3c0.2,0.3,0.2,0.5,0.3,0.8c0.3,0.7-0.1,1.3-0.3,2C32.9,47.2,32.7,48.2,32.9,49.3
		C32.9,49.5,32.8,48.9,32.9,49.3z"></path>
	<path class="st4 QsUNcRah_43" d="M35.4,50.2c-1.5-0.4-0.8-2.6-0.5-3.6c0.2-0.7,0.3-1.4,0.2-2.2c0-0.4-0.5-1.4,0.1-1.4c0-0.4-0.5-1.2,0-1.6
		c0.3-0.2,1.8,0.6,2.2,0.8c1.3,0.5,2.8,1.4,3.4,2.7C42.4,48,37.4,49.3,35.4,50.2C35.2,50.1,35.9,50,35.4,50.2z M36.5,43.6
		c-0.2,0,0.1,1.6,0.1,1.8c0,0.7-0.1,1.5-0.2,2.2c0.7-0.1,1.3-0.5,1.9-0.8c0.5-0.2,1.4-0.7,1.2-1.3c-0.2-0.4-0.9-0.8-1.2-1.1
		C37.8,44,37,44,36.5,43.6C36.5,43.6,36.6,43.6,36.5,43.6z"></path>
	<path class="st4 QsUNcRah_44" d="M47.5,49.1c-0.2,0.6-1.2,1.6-1.8,0.9c-0.2-0.2-0.3-0.6-0.6-0.9c0.3-0.1,0.7-0.1,0.8-0.5c0.1-0.5-0.7-0.2-1-0.1
		c-0.8,0.1-1.3,0.1-1.4-0.8c-0.2,0.3-0.2,0.5-0.4,0.8c-0.2,0.4-0.2,1-0.6,1.4c-0.2,0.2-0.4,0.4-0.7,0.3c-0.6-0.1-0.4-0.7-0.8-1
		c0.4-0.4,0.6-1.3,0.8-1.9c0.3-0.6,0.5-1.2,0.8-1.7c0.2-0.5,0.5-1.2,1-1.5c0.2-0.1,0.4,0,0.6-0.2c0.3-0.2,0.5-0.8,0.8-0.9
		c0.2-0.1,1,0.1,1.3,0.3c0.3,0.3,0.3,1.3,0.4,1.8c0.1,0.3,0.1,0.7,0.2,1.1c0.3,0.6,0.1,0.1,0.5,0.3c0.3,0.1,0.6,0.4,0.9,0.5
		c-0.2,0.4-0.8,0.7-0.9,1C47.3,48.3,47.6,48.7,47.5,49.1z M44.1,47.1c0.4,0,0.9-0.1,1.3-0.2c-0.1-0.5-0.2-1-0.4-1.5
		c-0.3,0.6-0.8,1.1-1.2,1.7C43.9,47.1,44,47.1,44.1,47.1C44.4,47,44.1,47.1,44.1,47.1z"></path>
	<path class="st4 QsUNcRah_45" d="M54.3,44.4c-0.5,0-1,0.1-1.5,0.2c-0.5,0.1-0.5,0-0.7,0.4c-0.3,0.6-0.5,1.3-0.8,1.9c-0.2,0.5-0.5,1-0.6,1.5
		c-0.1,0.2-0.1,0.3-0.1,0.5c0,0.5,0.1,0.2,0.2,0.6c0.1,0.2,0.3,0.4,0.1,0.7c-0.2,0.2-0.5,0.3-0.7,0.2c-0.6-0.1-0.8-0.7-0.9-1.2
		c-0.4-1.4,0.6-3,1.2-4.3c-0.7,0-1.9,0.4-2.4-0.2c-0.2-0.2-0.5-1.2-0.2-1.4c0.1,0,0.4,0,0.5,0c0.6,0,1.1-0.1,1.7-0.1
		c0.2,0,0.4,0,0.6-0.1c0.1,0,0.4-0.2,0.4-0.2c0.3-0.1,0.4,0.1,0.7,0.1c0.9,0.1,1.8-0.3,2.7-0.3c0.5,0,1.5,0.6,1.1,1.3
		C55.2,44.4,54.7,44.4,54.3,44.4z"></path>
	<path class="st4 QsUNcRah_46" d="M59,49.1c-0.2,0.6-1.2,1.6-1.8,0.9c-0.2-0.2-0.3-0.6-0.6-0.9c0.3-0.1,0.7-0.1,0.8-0.5c0.1-0.5-0.7-0.2-1-0.1
		c-0.8,0.1-1.3,0.1-1.4-0.8c-0.2,0.3-0.2,0.5-0.4,0.8c-0.2,0.4-0.2,1-0.6,1.4c-0.2,0.2-0.4,0.4-0.7,0.3c-0.6-0.1-0.4-0.7-0.8-1
		c0.4-0.4,0.6-1.3,0.8-1.9c0.3-0.6,0.5-1.2,0.8-1.7c0.2-0.5,0.5-1.2,1-1.5c0.2-0.1,0.4,0,0.6-0.2c0.3-0.2,0.5-0.8,0.8-0.9
		c0.2-0.1,1,0.1,1.3,0.3c0.3,0.3,0.3,1.3,0.4,1.8c0.1,0.3,0.1,0.7,0.2,1.1c0.3,0.6,0.1,0.1,0.5,0.3c0.3,0.1,0.6,0.4,0.9,0.5
		c-0.2,0.4-0.8,0.7-0.9,1C58.9,48.3,59.1,48.7,59,49.1z M55.6,47.1c0.4,0,0.9-0.1,1.3-0.2c-0.1-0.5-0.2-1-0.4-1.5
		c-0.3,0.6-0.8,1.1-1.2,1.7C55.5,47.1,55.6,47.1,55.6,47.1C55.9,47,55.6,47.1,55.6,47.1z"></path>
</g>
<style data-made-with="vivus-instant">.QsUNcRah_0{stroke-dasharray:3 5;stroke-dashoffset:4;animation:QsUNcRah_draw 6000ms ease-in-out 0ms forwards;}.QsUNcRah_1{stroke-dasharray:3 5;stroke-dashoffset:4;animation:QsUNcRah_draw 6000ms ease-in-out 0ms forwards;}.QsUNcRah_2{stroke-dasharray:3 5;stroke-dashoffset:4;animation:QsUNcRah_draw 6000ms ease-in-out 0ms forwards;}.QsUNcRah_3{stroke-dasharray:3 5;stroke-dashoffset:4;animation:QsUNcRah_draw 6000ms ease-in-out 0ms forwards;}.QsUNcRah_4{stroke-dasharray:3 5;stroke-dashoffset:4;animation:QsUNcRah_draw 6000ms ease-in-out 0ms forwards;}.QsUNcRah_5{stroke-dasharray:3 5;stroke-dashoffset:4;animation:QsUNcRah_draw 6000ms ease-in-out 0ms forwards;}.QsUNcRah_6{stroke-dasharray:3 5;stroke-dashoffset:4;animation:QsUNcRah_draw 6000ms ease-in-out 0ms forwards;}.QsUNcRah_7{stroke-dasharray:3 5;stroke-dashoffset:4;animation:QsUNcRah_draw 6000ms ease-in-out 0ms forwards;}.QsUNcRah_8{stroke-dasharray:3 5;stroke-dashoffset:4;animation:QsUNcRah_draw 6000ms ease-in-out 0ms forwards;}.QsUNcRah_9{stroke-dasharray:3 5;stroke-dashoffset:4;animation:QsUNcRah_draw 6000ms ease-in-out 0ms forwards;}.QsUNcRah_10{stroke-dasharray:3 5;stroke-dashoffset:4;animation:QsUNcRah_draw 6000ms ease-in-out 0ms forwards;}.QsUNcRah_11{stroke-dasharray:3 5;stroke-dashoffset:4;animation:QsUNcRah_draw 6000ms ease-in-out 0ms forwards;}.QsUNcRah_12{stroke-dasharray:3 5;stroke-dashoffset:4;animation:QsUNcRah_draw 6000ms ease-in-out 0ms forwards;}.QsUNcRah_13{stroke-dasharray:3 5;stroke-dashoffset:4;animation:QsUNcRah_draw 6000ms ease-in-out 0ms forwards;}.QsUNcRah_14{stroke-dasharray:3 5;stroke-dashoffset:4;animation:QsUNcRah_draw 6000ms ease-in-out 0ms forwards;}.QsUNcRah_15{stroke-dasharray:3 5;stroke-dashoffset:4;animation:QsUNcRah_draw 6000ms ease-in-out 0ms forwards;}.QsUNcRah_16{stroke-dasharray:3 5;stroke-dashoffset:4;animation:QsUNcRah_draw 6000ms ease-in-out 0ms forwards;}.QsUNcRah_17{stroke-dasharray:3 5;stroke-dashoffset:4;animation:QsUNcRah_draw 6000ms ease-in-out 0ms forwards;}.QsUNcRah_18{stroke-dasharray:3 5;stroke-dashoffset:4;animation:QsUNcRah_draw 6000ms ease-in-out 0ms forwards;}.QsUNcRah_19{stroke-dasharray:3 5;stroke-dashoffset:4;animation:QsUNcRah_draw 6000ms ease-in-out 0ms forwards;}.QsUNcRah_20{stroke-dasharray:3 5;stroke-dashoffset:4;animation:QsUNcRah_draw 6000ms ease-in-out 0ms forwards;}.QsUNcRah_21{stroke-dasharray:3 5;stroke-dashoffset:4;animation:QsUNcRah_draw 6000ms ease-in-out 0ms forwards;}.QsUNcRah_22{stroke-dasharray:3 5;stroke-dashoffset:4;animation:QsUNcRah_draw 6000ms ease-in-out 0ms forwards;}.QsUNcRah_23{stroke-dasharray:3 5;stroke-dashoffset:4;animation:QsUNcRah_draw 6000ms ease-in-out 0ms forwards;}.QsUNcRah_24{stroke-dasharray:3 5;stroke-dashoffset:4;animation:QsUNcRah_draw 6000ms ease-in-out 0ms forwards;}.QsUNcRah_25{stroke-dasharray:151 153;stroke-dashoffset:152;animation:QsUNcRah_draw 6000ms ease-in-out 0ms forwards;}.QsUNcRah_26{stroke-dasharray:4 6;stroke-dashoffset:5;animation:QsUNcRah_draw 6000ms ease-in-out 0ms forwards;}.QsUNcRah_27{stroke-dasharray:3 5;stroke-dashoffset:4;animation:QsUNcRah_draw 6000ms ease-in-out 0ms forwards;}.QsUNcRah_28{stroke-dasharray:4 6;stroke-dashoffset:5;animation:QsUNcRah_draw 6000ms ease-in-out 0ms forwards;}.QsUNcRah_29{stroke-dasharray:51 53;stroke-dashoffset:52;animation:QsUNcRah_draw 6000ms ease-in-out 0ms forwards;}.QsUNcRah_30{stroke-dasharray:9 11;stroke-dashoffset:10;animation:QsUNcRah_draw 6000ms ease-in-out 0ms forwards;}.QsUNcRah_31{stroke-dasharray:51 53;stroke-dashoffset:52;animation:QsUNcRah_draw 6000ms ease-in-out 0ms forwards;}.QsUNcRah_32{stroke-dasharray:9 11;stroke-dashoffset:10;animation:QsUNcRah_draw 6000ms ease-in-out 0ms forwards;}.QsUNcRah_33{stroke-dasharray:9 11;stroke-dashoffset:10;animation:QsUNcRah_draw 6000ms ease-in-out 0ms forwards;}.QsUNcRah_34{stroke-dasharray:51 53;stroke-dashoffset:52;animation:QsUNcRah_draw 6000ms ease-in-out 0ms forwards;}.QsUNcRah_35{stroke-dasharray:9 11;stroke-dashoffset:10;animation:QsUNcRah_draw 6000ms ease-in-out 0ms forwards;}.QsUNcRah_36{stroke-dasharray:9 11;stroke-dashoffset:10;animation:QsUNcRah_draw 6000ms ease-in-out 0ms forwards;}.QsUNcRah_37{stroke-dasharray:9 11;stroke-dashoffset:10;animation:QsUNcRah_draw 6000ms ease-in-out 0ms forwards;}.QsUNcRah_38{stroke-dasharray:41 43;stroke-dashoffset:42;animation:QsUNcRah_draw 6000ms ease-in-out 0ms forwards;}.QsUNcRah_39{stroke-dasharray:35 37;stroke-dashoffset:36;animation:QsUNcRah_draw 6000ms ease-in-out 0ms forwards;}.QsUNcRah_40{stroke-dasharray:32 34;stroke-dashoffset:33;animation:QsUNcRah_draw 6000ms ease-in-out 0ms forwards;}.QsUNcRah_41{stroke-dasharray:32 34;stroke-dashoffset:33;animation:QsUNcRah_draw 6000ms ease-in-out 0ms forwards;}.QsUNcRah_42{stroke-dasharray:17 19;stroke-dashoffset:18;animation:QsUNcRah_draw 6000ms ease-in-out 0ms forwards;}.QsUNcRah_43{stroke-dasharray:38 40;stroke-dashoffset:39;animation:QsUNcRah_draw 6000ms ease-in-out 0ms forwards;}.QsUNcRah_44{stroke-dasharray:34 36;stroke-dashoffset:35;animation:QsUNcRah_draw 6000ms ease-in-out 0ms forwards;}.QsUNcRah_45{stroke-dasharray:30 32;stroke-dashoffset:31;animation:QsUNcRah_draw 6000ms ease-in-out 0ms forwards;}.QsUNcRah_46{stroke-dasharray:34 36;stroke-dashoffset:35;animation:QsUNcRah_draw 6000ms ease-in-out 0ms forwards;}@keyframes QsUNcRah_draw{100%{stroke-dashoffset:0;}}@keyframes QsUNcRah_fade{0%{stroke-opacity:1;}96.07843137254902%{stroke-opacity:1;}100%{stroke-opacity:0;}}</style></svg>
